<svg xmlns="http://www.w3.org/2000/svg" viewBox="0 0 132 36" fill="none" role="img" aria-label="OpenAI">
  <path d="M18 6.5c3.2-1.9 7.3-.8 9.2 2.4 1.2 2 1.3 4.5.3 6.6 2.2.6 4 2.3 4.7 4.6.9 3.2-.4 6.6-3.2 8.3-2.8 1.7-6.4 1.2-8.7-1.2-2.3 1.5-5.3 1.7-7.8.4-3.2-1.7-4.7-5.3-3.6-8.7 1-3.1 3.9-5.2 7.1-5.2.5-2.8 2.6-5.1 5.4-5.8 1-.2 2-.2 2.9 0Z" stroke="#E5E5E5" stroke-width="1.5"/>
  <text x="40" y="23" fill="#F5F5F5" font-family="Inter,Segoe UI,sans-serif" font-size="15" font-weight="600">OpenAI</text>
</svg>
