<svg xmlns="http://www.w3.org/2000/svg" viewBox="0 0 103 36" fill="none" role="img" aria-label="Python">
  <path d="M14 12h8c3 0 5 2 5 5v2h-6v-1h4c1 0 2-1 2-2s-1-2-2-2h-8c-3 0-5 2-5 5v4c0 3 2 5 5 5h2v3h-2c-4 0-7-3-7-7v-4c0-4 3-7 7-7Z" fill="#3B82F6"/>
  <path d="M22 24h-8c-3 0-5-2-5-5v-2h6v1h-4c-1 0-2 1-2 2s1 2 2 2h8c3 0 5-2 5-5v-4c0-3-2-5-5-5h-2v-3h2c4 0 7 3 7 7v4c0 4-3 7-7 7Z" fill="#FACC15"/>
  <text x="40" y="23" fill="#F5F5F5" font-family="Inter,Segoe UI,sans-serif" font-size="15" font-weight="600">Python</text>
</svg>
